<svg id="Layer_1" data-name="Layer 1" xmlns="http://www.w3.org/2000/svg" xmlns:xlink="http://www.w3.org/1999/xlink" viewBox="0 0 773.5 448"><defs><style>.cls-1,.cls-2,.cls-3,.cls-4{fill:none;stroke:#3d6e6a;stroke-linecap:round;stroke-linejoin:round;stroke-width:0.5px;}.cls-2{stroke-dasharray:8.95 8.95;}.cls-3{stroke-dasharray:8.95 8.95;}.cls-4{stroke-dasharray:9;}.cls-5{fill: none;}</style><linearGradient id="linear-gradient" x1="189.85" y1="225.22" x2="638.1" y2="225.22" gradientTransform="translate(1.6 0.16)" gradientUnits="userSpaceOnUse"><stop offset="0.11" stop-color="#fff"/><stop offset="0.84" stop-color="#fff" stop-opacity="0"/></linearGradient></defs><title>contours</title><path class="cls-1" d="M419.75,1c-.54,1.4-1.1,2.8-1.59,4.21"/><path class="cls-2" d="M416.69,14c0,.33.06.67.11,1a122.67,122.67,0,0,0,2.49,12.75c1.35,5.37,2.89,10.72,1.4,16.24a29.76,29.76,0,0,1-3.25,7.73c-3.91,6.36-8.09,12.55-12.19,18.79-5.84,8.86-14.6,13.12-24.49,15.79-6.56,1.77-13.08,3.77-19.49,6-6.6,2.31-6.87,5.75-5.67,11.43,2,9.33,4.75,18.48,6.82,27.79,1,4.65,1.19,9.49,1.85,14.23.63,4.53-.12,8.87-1.22,13.26-1.34,5.29-4.45,9.46-8.1,13.19-5.12,5.24-11.14,9.22-18.46,10.77a32.74,32.74,0,0,1-6.24.75c-5.67.1-11.35.31-17,0-7.56-.46-15.13-1.15-22.5-3.17-6.9-1.88-11-6.61-13.5-13-1.74-4.42-3.32-8.91-5.29-13.23-3.28-7.18-9-11.82-16.73-12.91-9-1.27-19,2.55-22.45,12.65-1.51,4.44-2.61,9-4.05,13.48a15.38,15.38,0,0,1-7.5,8.72c-3.54,1.95-7.29,1.63-10.68-1.52-4.13-3.84-5.45-8.82-4.58-14.44.69-4.43,3.13-8,5.27-11.75,1.95-3.4,4-6.8,4.46-10.76a107.38,107.38,0,0,0,.52-11.49A16.34,16.34,0,0,1,223.74,112c2.74-1.89,5.33-4,8-6,3.85-2.83,6.19-6.87,8.77-10.73a80.89,80.89,0,0,1,5.76-7.74c3-3.54,7.31-4.57,11.72-4.74,5.16-.18,10.34.13,15.5-.12,2.27-.11,4.93-.5,6.67-1.78,5.71-4.17,4.47-10-1-12.8a91.81,91.81,0,0,0-14.49-5.75c-4.54-1.41-9.33-2-14-3.12-5.87-1.42-10.84.36-15,4.33A121.51,121.51,0,0,0,225.3,75c-5.23,6.5-11.86,11.37-18.32,16.43-3.8,3-7.95,5.53-11.7,8.57-4.83,3.94-7.29,9.48-9.26,15.22A52.69,52.69,0,0,1,180,128c-6,8.85-14,10-23,6.42-7.86-3.13-13.34-9-16.77-16.7a14.62,14.62,0,0,1,0-11.48c2.6-6.86,5.2-13.72,8-20.5,2.42-5.81,5-11.55,7.75-17.25s3.33-10.93,0-16.54A16.22,16.22,0,0,0,146,44.54c-10.67-3-20.05,1.85-23.21,13-2.11,7.39-3.38,15.07-7.54,21.73-4.54,7.28-9,14.6-13.79,21.72-2.76,4.11-7.13,5.64-12,5.77-3.75.1-7.51-.16-11.25,0-10.86.64-21.68,1.73-32,5.51-4.76,1.75-9.37,3.91-14,6a39.76,39.76,0,0,1-15.76,3.56c-1.44,0-2.89.14-4.33.3"/><path class="cls-1" d="M7.74,122.75l-2,.31c-.73.11-1.34.94-2,1.44A8.34,8.34,0,0,0,5.51,126l2,.88"/><path class="cls-3" d="M15.76,130.36l1.48.66c4.56,2,8.07,5.4,11.57,8.92,5.69,5.72,11.66,11.19,17.73,16.52,5,4.37,10.14,8.59,15.53,12.45,2.52,1.8,5.71,2.73,8.69,3.8,3.24,1.17,6.19-.13,8.7-2,3.31-2.47,6.33-5.33,9.55-7.94,5.54-4.49,11.6-5.43,18.51-3.34a61.26,61.26,0,0,1,21,10.81c6.34,5.08,14,7.12,21.72,9.06A293.8,293.8,0,0,1,189,191.52c4.81,1.95,9.45,4.31,14.28,6.17,2.87,1.09,6,1.43,9,2.34,7,2.15,11,7.07,12,14.23a55.58,55.58,0,0,1-4,30.49c-1.84,4.16-3.89,8.25-5.4,12.53a16.09,16.09,0,0,0-.53,6.71c.32,3.29,3.83,5.15,7.17,4a20.83,20.83,0,0,0,9.77-7.22c3.61-4.64,7.31-9.22,13-11.5a67.71,67.71,0,0,1,17.25-4.51c2.59-.31,5.16-.89,7.75-1,7.78-.22,14.67,2.62,21.26,6.45,5.09,3,10.32,5.54,16.49,5,4.28-.37,8.07-2.22,12-3.71,7.6-2.86,14.11-7.47,20.46-12.33A36.8,36.8,0,0,1,361,231.7a30.14,30.14,0,0,0,18.51-6.94A196.72,196.72,0,0,0,406,197.52c4.38-5.35,9-10.47,13.46-15.78a152,152,0,0,0,9.69-12.29c2.81-4.19,6.68-5.82,11.33-6.17,6.46-.5,11.81-2.72,16.1-7.95,3.15-3.84,7.13-7,10.93-10.3a23.86,23.86,0,0,0,8.13-12.55,146.53,146.53,0,0,1,10-29.25A18.52,18.52,0,0,0,487.81,93a7.48,7.48,0,0,0-3.07-5.23c-3.22-2.54-6.57-4.91-9.72-7.53-3.81-3.17-3.38-7.88.23-10.73,5.6-4.4,15-5.92,21-2.49a9.39,9.39,0,0,1,5,8.49c0,1.25,0,2.5,0,3.75,0,5.13,2.43,8.37,7.51,8.91a96.1,96.1,0,0,0,12.24.07c2.5,0,5-.4,7.5-.46,8.25-.21,16.5-.33,24.75-.53,5.08-.12,10.17-.45,15.25-.45A17.13,17.13,0,0,1,579,90.22c3.75,2.79,5,6.75,5.72,11,1.25,8-.88,15.72-2.23,23.5-1.12,6.41-2.29,12.82-3.22,19.26a74.27,74.27,0,0,0-.95,12,122.14,122.14,0,0,0,1.42,12.75c.62,4.67,1.25,9.35,2,14,1.18,7.18,5.55,12.52,11,16.67,10.33,7.78,16.77,18,20.65,30.09a126.11,126.11,0,0,1,4.65,17.26c.85,5.06-.18,10.19-1.52,15.25a135.29,135.29,0,0,1-6.54,19c-2.14,5-2,10-.37,15.25,1.51,4.81,2.41,9.81,3.57,14.73,1.37,5.82.18,11.33-2,16.76-2.34,5.88-5.09,11.58-6.1,18C604,353.22,605,360,609.77,366c3.24,4.07,6.69,8,10,12,4.59,5.66,7.24,12.24,9,19.24,1.58,6.18,3.29,12.34,5,18.5,2.48,9,8.47,14,17.74,15a49,49,0,0,0,5.25.47,4.67,4.67,0,0,0,5-4c1.06-4.85.29-9.68-.25-14.5-.93-8.34-4.77-15.71-8-23.23-3.13-7.19-3.32-14.51-2-22,2.07-11.29,6.38-21.86,10.44-32.52a106.26,106.26,0,0,0,5.86-23c.92-6.62,1.55-13.35,4.49-19.49a44.87,44.87,0,0,1,4.25-7.24c4.92-6.74,7.25-14.33,8.26-22.52A57.28,57.28,0,0,1,694.23,238a30.05,30.05,0,0,0,5.11-17.24c0-4,.8-8.07,4.15-11,2-1.74,4.88-1.38,6,1a17.21,17.21,0,0,1,1.27,5.22c.32,3.24.42,6.5.53,9.75a14.05,14.05,0,0,0,3.8,8.71c5.23,6.07,11,11.52,18.22,15.28,6.67,3.49,13,2.39,19-1.73,3.91-2.66,7.84-5.32,11.84-7.85"/><path class="cls-1" d="M768,238c1.38-.55,2.86-.94,4.26-1.46"/><path class="cls-1" d="M451.5,1.25c-5.08,2.42-10.34,4.54-15.2,7.34-3.82,2.22-6.62,5.45-7.14,10.4-.55,5.11.63,9.93,1.68,14.74A54.15,54.15,0,0,1,432.17,50c-.4,4.6-3,8.18-6.66,11a75,75,0,0,0-14,14.25c-2.14,2.87-4.1,5.88-6.28,8.73-4.09,5.34-9.71,8.43-16,10.51-5.69,1.89-11.42,3.7-16.49,7-4.49,2.93-7.37,6.9-7,12.49.42,6,.88,12,1.77,18a103.49,103.49,0,0,1,1.07,23.5C368,164,363.8,171.15,358,177.21c-3.6,3.74-6.82,8.07-11.73,10.24-3.13,1.37-6.44,3-9.74,3.16a256.57,256.57,0,0,1-29.73.46,61.18,61.18,0,0,1-24-6.32c-5.15-2.6-8-7.14-10-12.26-1.45-3.7-2.52-7.56-4.06-11.22-1.9-4.51-4.72-8.25-9.45-10.29-7.54-3.26-14.82,1.08-17.44,7.3-1.33,3.16-1.85,6.65-2.83,10q-2.43,8.15-5,16.25a26.72,26.72,0,0,0-.47,14.75,57.31,57.31,0,0,1,1.71,17c-.23,3.92-.93,7.84-.88,11.75a24,24,0,0,0,1.71,7.48c1.07,3,3.48,4.17,6.69,4.31,8.83.41,17.12-2.13,25.51-4.25a65.15,65.15,0,0,1,10-1.73c3.69-.35,7.14.89,10.5,2.42,3.87,1.76,7.77,3.51,11.76,5,4.37,1.61,8.88.9,13.22-.25a52.8,52.8,0,0,0,19.05-9.91c3.65-2.85,7.21-5.85,11.67-7.64A34,34,0,0,1,356,221.32c5.41-.23,10.7-.71,15.75-2.81a44.28,44.28,0,0,0,17.41-12.59c6.13-7.43,11.57-15.43,17.35-23.17,4.94-6.62,7.22-14.28,8.75-22.25,1.17-6.11,3.19-11.94,7.29-16.7,3.07-3.57,7.4-5.16,11.95-6.05,7.65-1.49,15.26-3.1,22.25-6.75a20,20,0,0,0,10-11.25c1.63-4.51,3.46-9,4.95-13.51,1.62-4.92.25-9.18-3.18-13a67.37,67.37,0,0,1-7.92-10c-2.05-3.45-3.41-7.39-2.38-11.69a11.6,11.6,0,0,1,4.77-7,90.83,90.83,0,0,1,24.78-12.17c6.28-2,12.51-.63,18.47,1.93A32.06,32.06,0,0,1,520.8,66.72a48.5,48.5,0,0,0,5.48,6.76c3.68,3.93,8.63,5.06,13.72,5.78,9.39,1.32,18.42-1.17,27.49-2.8,13-2.34,24,2.84,29,16.05,2.29,6.12,4.59,12.25,6.45,18.51a20.55,20.55,0,0,1-2.17,17.49c-3,4.71-6,9.38-8.7,14.27a34.49,34.49,0,0,0-3.87,14.47,49.2,49.2,0,0,0,6.4,27.45A41.6,41.6,0,0,0,601.8,194a105.31,105.31,0,0,1,21.66,31.57A37.08,37.08,0,0,0,638,242.05c3.36,2.08,6.87,4.14,9,7.7,3.34,5.51,2.16,13.19-3.27,17-3,2.07-6.23,3.75-9.21,5.8A32.73,32.73,0,0,0,620.4,295a36.88,36.88,0,0,0,.47,13.2c2,9.64.6,18.37-4.85,26.54A26.82,26.82,0,0,0,611.26,352c.35,4.81,2.68,8.82,5.53,12.47,3.57,4.55,7.44,8.88,11.21,13.28A33.94,33.94,0,0,1,635.85,396c.85,6.5,1.73,13.09,5.6,18.8A8.63,8.63,0,0,0,647,418.5c2.69.64,5.45-1.8,5.76-5,.56-5.82-1.42-11-4-16a84.62,84.62,0,0,1-4.7-10.26c-1.72-4.93-1.12-10.07.23-15,3.09-11.13,6.31-22.22,9.75-33.25a185.13,185.13,0,0,0,6.19-24.51c1.39-8.33,2.64-16.67,4-25,.93-5.62,3.41-10.64,6.26-15.49,3.15-5.38,4.82-11.24,6.29-17.24,2.17-8.82,4.91-17.49,7.12-26.29a71,71,0,0,0,1.3-10.23c.25-2.41.48-4.83.5-7.25.1-11.54-2.89-22.41-7.79-32.72a30.76,30.76,0,0,0-19.17-16.59,64.64,64.64,0,0,1-12.95-5.3c-5.79-3.39-8.26-9.21-9.62-15.63-1.05-5,.44-9.84.54-14.76.13-6.64-2.85-11.45-8.74-14.5-3.18-1.65-6.35-3.31-9.5-5C614,106,611.78,102.13,611.75,97c0-4.5,0-9,0-13.5.06-6.13-2.76-11-7-15-6.59-6.12-14.77-8.73-23.46-10.37-5.74-1.08-11.34-2.94-17-4.41-4.66-1.21-9.33-2.35-14-3.51A27.82,27.82,0,0,1,539,44.73c-5.56-4.63-6-11.16-5.13-17.46A55.26,55.26,0,0,0,531.75,1"/><path class="cls-1" d="M629.25,447c-1.25-3.67-2.73-7.27-3.68-11a58.77,58.77,0,0,1-1.3-9.48c-.94-11.8-2.49-23.44-7.77-34.25-3.3-6.76-8.4-11.93-14.22-16.54a49.22,49.22,0,0,1-7.23-6.75c-4.45-5.31-4.63-11.56-3-18,1.75-7,3.5-14,5.51-21,3.06-10.51,1.6-20.21-4.51-29.27a59.87,59.87,0,0,1-3.75-6.5c-3.34-6.64-3.68-13.28,0-20,3-5.51,5.92-11.06,7.25-17.25,1.25-5.83,2.3-11.76,1.74-17.74-1.27-13.52-7.91-23.29-20.71-28.49-4-1.62-8-3.24-12-4.74-3.6-1.34-5.6-4.15-6.7-7.53A41.21,41.21,0,0,0,547,179.72a39,39,0,0,1-4-4.48c-3.7-4.44-4.33-9.48-3-15,1.8-7.72,5.81-14.26,10.5-20.5,3-4,6.21-7.73,7.56-12.73,2.76-10.21-2.08-20.78-12.79-23.25-4.42-1-8.83-.56-13.26.21-5.14.89-10.31,1.6-15.49,2.26-9.11,1.17-17.14,4.21-21.43,13a40.14,40.14,0,0,0-3.7,11,167.66,167.66,0,0,0-2,20.48c-.19,5.58,1.63,10.85,4.39,15.76a65.36,65.36,0,0,1,3.72,7.26c2.11,5.18.61,10.36-5.47,13.2-3.93,1.83-8.05,3.24-12,5.06a48.09,48.09,0,0,0-14.27,10.46A39.93,39.93,0,0,1,451.26,212a25.51,25.51,0,0,1-19.76,0c-7.31-3.05-14.11-2.1-20.5,2.49-6.88,4.95-12.69,10.95-16.38,18.57-1.91,3.93-2.74,8.41-3.84,12.7-1.78,6.94-5.1,9.2-12.28,8-4.59-.78-9.14-1.86-13.76-2.44-6.5-.81-12.14,1.45-17.26,5.43-5.59,4.35-11.41,8.4-16.94,12.82a37.33,37.33,0,0,0-7.45,7.51,46,46,0,0,1-17.81,15,90.31,90.31,0,0,0-8.53,5.44c-.85.56-1.64,1.22-2.51,1.74-4.43,2.67-7.73,2-10.46-2.51a26.77,26.77,0,0,1-3.56-12c-.34-3.93-.89-7.85-1.49-11.75-.89-5.8-5.87-11.27-13.49-12.19-7.26-.86-13.08,2.13-16.5,8.43-2.64,4.86-3.35,10.24-4.5,15.51s-2.28,10.34-3.5,15.5c-1.8,7.61-2.94,15.2-1,23,1.21,4.95,2,10,3,15,.64,3.21-1.76,5.76-5.5,6-3.5.25-7.11.23-10.47,1.1a29.9,29.9,0,0,0-9.71,4.22,107.78,107.78,0,0,1-25.79,13.25c-7.74,2.84-14.16,7.74-18.27,15.16S162.54,390,154.52,392.56c-7.67,2.49-15.1,5.71-22.79,8.13-12.29,3.87-26.12-1.57-29.68-15.45a67.19,67.19,0,0,1-1.29-8.74c-.62-5.16-1.15-10.34-1.77-15.5-.54-4.5-1.4-9-1.69-13.5-.49-7.85,1.81-15.14,4.92-22.26q5.57-12.8,10.75-25.75c2.68-6.75,6.52-12.84,10.29-19C126,276,127,271.06,127.75,266s1.64-9.81,5-13.74c3.19-3.71,7.25-6.08,12.23-5.95s10,.63,15,1.22c7.84.93,15.61,1.54,23.26-1.25a15,15,0,0,0,6-3.77,6.74,6.74,0,0,0,1.44-7.74c-1-2.43-2.56-4.64-3.68-7-2.08-4.46-4-9-6-13.49-2.88-6.51-8.43-9.16-15-10s-13.39-1.6-19.73-4.06a34.16,34.16,0,0,0-18.52-2c-7.06,1.22-13.86.51-20.26-3.17-4.88-2.8-10-1.91-15-.07a142,142,0,0,1-14.76,4.95c-9.22,2.28-17-.32-23.25-7.66-2.39-2.83-5-5.52-7.48-8.26-4.08-4.45-6.07-10.12-9-15.22-5.84-10-13.1-18.6-24.45-22.82A50.4,50.4,0,0,0,1,143.25"/><path class="cls-1" d="M652.25,447c-1.86-3.95-5.3-6.12-9-8-5-2.53-9.42-5.83-11.65-11a58.57,58.57,0,0,1-3.3-11.72c-1.82-9.23-3.89-18.41-7.9-26.94a55.22,55.22,0,0,0-7.21-10.75c-2.72-3.39-6.06-6.28-8.91-9.58a21.92,21.92,0,0,1-5.6-12.71c-.55-6.42,1-12.45,2.59-18.5,1.39-5.28,3.16-10.47,4.44-15.77,1.79-7.39-.31-14.21-3.71-20.74-1.57-3-3.27-5.95-4.73-9-2.3-4.87-1.94-9.7.46-14.5a65.39,65.39,0,0,0,6.28-17c1.42-7.43,2.94-14.93,2.16-22.49-1.22-11.78-5.88-22-15.44-29.48A98.82,98.82,0,0,0,581,202a26.54,26.54,0,0,1-12.25-16c-1.27-4.45-3.29-8.52-7-11.5-1.77-1.41-3.77-2.54-5.47-4-6.43-5.66-6.27-11.62-2.18-18.17a52.33,52.33,0,0,1,8-9.51c4.81-4.67,7.14-10.45,8.14-16.81a125.87,125.87,0,0,0,1.5-15.74c.25-8.86-3.7-11.07-10-12.89A57.2,57.2,0,0,0,542,94.85c-5.45.36-10.85,1.55-16.26,2.41-5.09.8-10.14,1.88-15.26,2.44-9,1-15.63,5.19-20.06,13.26-3.44,6.24-4.84,13-6.2,19.79A175,175,0,0,1,480.4,150a34.73,34.73,0,0,0-.66,18.28c1.36,6.08.64,9.74-4.73,13.27-3.9,2.57-7.8,5.16-11.46,8-2.25,1.77-3.92,4.26-6.09,6.14a27,27,0,0,1-5.73,3.76c-3.57,1.75-6.84.31-10-1.47a13.82,13.82,0,0,1-2-1.5c-5.7-4.87-11.73-4-17.45-.41a84.71,84.71,0,0,0-13.72,10.26c-9,8.62-18.2,17.1-25.1,27.65a23,23,0,0,1-3,3.74c-2.54,2.49-5.46,4.2-9.23,4-3-.12-6,.08-9,0a26.08,26.08,0,0,0-18.7,6.58c-7.38,6.47-15.75,11.32-24.3,15.93-3.48,1.88-6.91,3.89-10.52,5.46-6.07,2.66-10.17,1.87-15-2.68a148.67,148.67,0,0,0-12-10.7c-5.07-3.83-11.08-4.88-17.44-4.64a33.33,33.33,0,0,0-13,2.78,24,24,0,0,0-10.95,10.31c-4.25,7.49-8,15.24-9.75,23.74a90.74,90.74,0,0,0-2.34,18.24c0,5.33-.44,10.68-1,16a15.1,15.1,0,0,1-5.44,9.75c-4,3.53-8.29,6.74-11.94,10.57-6.16,6.48-13.73,9.65-22.3,11.23-7.19,1.32-14.3,3-20.77,6.69a20,20,0,0,0-7.76,8.26,68.58,68.58,0,0,1-5.3,9.21c-3.63,4.8-9.19,6.66-14.7,8.24a40.22,40.22,0,0,1-10.73,1.95c-8.69,0-14-2.72-18.21-11.41-3.52-7.34-5.21-15.3-6.75-23.24-1.86-9.63.66-18.5,5.18-27,3-5.66,6-11.36,8.46-17.26a69.39,69.39,0,0,1,12.12-19.43,43.59,43.59,0,0,0,10.21-20c1.33-6,4.76-10.3,11-11.41,3-.53,6.15-.09,9.23-.09,5.5,0,11,.25,16.5-.06,6.63-.39,13.36-1.1,19.46-3.79a26.37,26.37,0,0,0,15.25-27.14,10.2,10.2,0,0,0-5.46-7.76c-1.91-1.09-3.82-2.2-5.75-3.24-4.12-2.23-6.75-6-9.44-9.55-4.88-6.45-11.36-10.07-19.07-11.68-7.06-1.48-13.71-4.19-20.51-6.46-5.8-1.93-11.82-3.22-17.73-4.82A40.65,40.65,0,0,1,119,177.78a46.24,46.24,0,0,0-7.51-4.73c-6.16-2.93-13.3-3-18.26,2.92A61.83,61.83,0,0,1,85,184.44c-9.13,7.39-17.24,5.71-25.47-1.67-5.77-5.18-9.76-11.76-14.57-17.7a144.41,144.41,0,0,0-12.69-13c-3-2.86-6.23-5.47-9.49-8-5.11-4-11.31-5.14-17.48-6.26-1.4-.25-2.83-.34-4.25-.51"/><path class="cls-1" d="M384.75,1c.6,5.53,3.9,8.62,9,10.28,3.7,1.21,7.36,2.54,10,5.71,6.6,7.83,9.47,19.07,4.7,29-2.49,5.18-5.13,10.29-8,15.25-4.31,7.43-11,11.45-19.46,12.51-3,.38-6,.83-9,1-5.07.24-9.92-1.14-14.75-2.47a58.75,58.75,0,0,0-7.51-1.94c-5.69-.77-11.94,4.23-13,9.94A15.76,15.76,0,0,0,338.52,91c3.1,5.7,6.43,11.28,9.44,17a105.24,105.24,0,0,1,5.72,12.51,141.11,141.11,0,0,1,5.22,17c1.29,5.63,2.05,11.4.63,17.24-1.9,7.79-6.67,13.34-13.29,17.48a35.91,35.91,0,0,1-20,5.49c-5.58-.08-11.19,0-16.74-.56a118,118,0,0,1-15.5-2.48c-7-1.61-10.75-6.86-13.27-13.19-2.12-5.34-3.88-10.82-7-15.77-5.09-8.16-12.42-12.82-21.78-14.48-3-.52-6.05-.81-9-1.54-4.72-1.18-7.58-3.58-4.93-9.17,3.39-7.16,7.32-14.08,12.68-20,5.72-6.37,11.72-6.4,19-3.25,2.88,1.25,5.56,3.1,8.53,3.91,9,2.45,16.92-1.85,21.19-9.44,2.77-4.93,4.1-10.25,2.81-16-.54-2.39-.56-4.93-1.33-7.23-1.93-5.83-6.24-9.12-12.19-10.26-5.57-1.06-11.16-2-16.75-3-7.18-1.23-13.8-4.1-20.51-6.74a70.8,70.8,0,0,0-10-3.43c-3.15-.73-6.13.77-8.7,2.45a41.47,41.47,0,0,0-15.34,16.93,28.27,28.27,0,0,1-20.95,16.22c-11,2.12-17.34,9.06-21.52,18.8-1.67,3.9-3.51,7.75-5.54,11.47a12.13,12.13,0,0,1-3.45,3.51c-4.15,3.2-8.52.21-10.5-3.21a13.18,13.18,0,0,1-1.1-9.48c1.8-8.48,5.49-16,12.31-21.85a30.47,30.47,0,0,0,6.21-7.49c1.58-2.63,1.56-5.77,1.45-8.94-.22-6.4-2.3-12.36-3.67-18.49A23,23,0,0,0,168,38.53c-1.67-2.84-4.57-4-7.7-4.23-5.49-.34-11-.32-16.5-.56-8.53-.37-15.38,3.22-21.51,8.75-6.35,5.72-9.19,13.19-11,21.26a67.55,67.55,0,0,1-11,25.27,28,28,0,0,1-19.53,11.74c-9,1.3-18,2.57-27,4-5.69.92-11.32,2.22-17,3.2-5.21.89-10.36,1.68-15.77.88-6.59-1-13.31-1.11-20-1.61"/><path class="cls-1" d="M550.25,447c.09-6-.69-12.18,1.55-18a88.89,88.89,0,0,1,5.25-11.49c3.79-6.77,7-13.79,7.59-21.54.74-10.23-.76-20.06-8.64-27.74-3.58-3.47-8-5.32-12.76-6.47-6.89-1.69-13.79-3.36-20.75-4.72-4.52-.89-9.16-1.18-13.74-1.82-6.25-.87-12.52-1.69-18.74-2.79-4.17-.73-6.94.15-9.25,3.81-3.66,5.81-5.91,12.23-8.06,18.72-2.95,8.94-5.29,18.13-9.74,26.5a34.62,34.62,0,0,1-11.67,12.57c-7.06,4.71-13.76,9.95-20.82,14.65-6.71,4.46-13.91,4.72-21.22,1.3s-14.33-6.68-21.5-10c-4.95-2.29-8.41-5.79-9.77-11.24s-3.7-10.58-8.25-14.23a66.81,66.81,0,0,0-7.5-5.25,107.29,107.29,0,0,1-18.27-14,94.92,94.92,0,0,0-17.91-12.88c-7.88-4.54-15.37-9.76-23.05-14.65a36.5,36.5,0,0,0-14.51-5,55.48,55.48,0,0,0-10.49-1,51.25,51.25,0,0,0-22.23,6.45c-2.19,1.18-2.32,2.33-1.54,5,1.2,4.05,4,7.13,6.58,10.19a46.39,46.39,0,0,1,10.46,21.3,42.7,42.7,0,0,0,1.49,5c1.78,5.24,6,7.45,11,8.48,9.16,1.9,18.31,3.79,27.51,5.48A49.7,49.7,0,0,1,329,411c7.78,5,16.35,8,25.24,10.27,4.57,1.17,9.29,2.42,11.93,6.78a24.15,24.15,0,0,1,2.53,7.21c.86,3.87,1.38,7.82,2.05,11.74"/><path class="cls-4" d="M1,148.75c2.25.42,4.53.72,6.75,1.27,11.15,2.79,18.2,10.16,22.48,20.49,1.88,4.53,3.36,9.23,5.33,13.71a38.75,38.75,0,0,0,4.48,7.5,40,40,0,0,1,7.21,16.53c1.49,7.54,5.22,8.63,10.27,9.38a146.68,146.68,0,0,0,20,1.51,72.34,72.34,0,0,0,13.74-1.44c10-1.82,17.79,1.77,22.74,11.06,3.14,5.91,5.16,12.07,4.86,19s-.18,13.92-1.66,20.73a67.65,67.65,0,0,1-3.46,10.26c-2.57,6.54-5.36,13-8,19.52-3.47,8.72-7,17.45-10.22,26.25A58.38,58.38,0,0,0,91.71,347c.19,5.24-.07,10.5.08,15.75a38.09,38.09,0,0,1-2,12.26c-1.17,3.78-2.56,7.61-2.87,11.5-.25,3,.64,6.28,1.65,9.21,2.35,6.79,6.08,12.66,12.42,16.55,3.79,2.32,8,3.16,12.27,3.93a85.18,85.18,0,0,0,12,1.48,29.63,29.63,0,0,0,14.51-2.92c4.47-2.22,8.85-4.74,13.53-6.39,4.05-1.42,8.44-1.95,12.72-2.55,2.25-.32,2.9,1,1.72,2.92-1.34,2.21-3,4.26-4.2,6.53a25,25,0,0,0-2.31,17c.82,4.38,1.35,8.82,2,13.24a9.38,9.38,0,0,0,.49,1.5"/><path class="cls-1" d="M155.25,447c-.8-7.77-7.42-15.52-15.26-17.18-6.27-1.33-12.64-2.19-19-3-5.65-.76-11.34-1.12-17-1.81-7.65-.93-14.12-4.77-20.48-8.75-2.43-1.52-4.74-3.25-7-5-4.1-3.15-5-7.79-5.2-12.49-.26-5.32-.17-10.67,0-16a21.86,21.86,0,0,1,5-13.21,39.27,39.27,0,0,0,8.43-20c.75-5.82,1.11-11.71,2.08-17.49,1.19-7.12,1.52-14.46,4.25-21.24a98.9,98.9,0,0,1,5.47-11c4.08-7.38,6.19-15.41,8.25-23.5,1.45-5.68,2.89-11.33,2.46-17.26s-2-11.79-6-16.47c-3.25-3.76-7.66-4.79-12.46-4-9.51,1.53-18.91,2-28.27-1.21C55.83,235.73,51,235,46,236.24s-7.42,4.89-7.71,9.51a95.08,95.08,0,0,0,.85,16.76,68,68,0,0,1,0,14.48c-.44,4.25-3.13,7.58-6.65,10-6.73,4.59-11.44,10.81-15,18-2.25,4.58-4.81,9.05-6.63,13.79-1.13,2.93-1.3,6.28-1.58,9.46-.6,6.79-2.32,13.08-7,18.26a11.81,11.81,0,0,0-1,1.49"/><path class="cls-1" d="M142,446.75c-6.33-5.61-13.89-8.77-22-10.41-5.65-1.14-11.5-1.3-17.22-2.13-5.2-.74-10.32-1.95-15.52-2.65-3.29-.45-6.53-1.16-10-.45a28.66,28.66,0,0,1-10,0c-4.45-.71-7.46-3.61-9-7.9-1.32-3.59-2.61-7.19-4-10.74-1.69-4.28-3.23-8.64-5.29-12.73-4.55-9-3.24-12.2,2.56-19,7-8.2,14.07-16.27,20.95-24.54C76,352,77.58,346.9,78.25,341.5a66.36,66.36,0,0,0,.94-8.5,46.93,46.93,0,0,0-2.68-15,67.17,67.17,0,0,1-2.45-8,7.72,7.72,0,0,1,2.48-7.2A45.36,45.36,0,0,1,83,297.54c5.41-3.58,9-8.42,9.9-14.8.81-5.91,1.13-11.94-2.67-17.24-3.12-4.36-7.78-4.67-12.5-4.71a20.09,20.09,0,0,0-3.25.7c-7.32,1.2-11.19,5.8-12.76,12.76-.7,3.09-1.33,6.22-2.27,9.24-1.72,5.5-5.68,9-10.7,11.55-4.51,2.32-9.21,4.5-13.19,7.57a26.6,26.6,0,0,0-10.83,19.14,35.91,35.91,0,0,0-.46,5.25c.41,7.2-1.83,13.78-4.55,20.24-1.42,3.37-3,6.68-4.49,10A23,23,0,0,1,3.76,368.77a18.37,18.37,0,0,0-2.51,1.73"/><path class="cls-1" d="M540,1.25a4.48,4.48,0,0,1,.73,1.25c1.39,7.78,1.54,15.62,1.57,23.5,0,9.33,4.91,15.55,14.22,17.93,6.83,1.76,13.79,3,20.74,4.28,5.71,1,11.6,1.26,17.22,2.64A50.53,50.53,0,0,1,619.22,65c2.56,2.65,3.35,6.15,3.5,9.72a109.08,109.08,0,0,1,0,11c-.53,8.88,3.53,15,11,19.26,2.22,1.25,4.35,2.65,6.51,4,4.91,3.06,7.08,7.85,8,13.26.6,3.79.64,7.67,1.07,11.49.53,4.68.45,9.68,4.27,13.2a49.93,49.93,0,0,0,8.24,6.25c8.46,5,15.31,11.72,21.77,19a46.9,46.9,0,0,0,9.53,8.68c5.67,3.61,11.82,3.22,17.66-.14a33,33,0,0,0,14-15c3.79-8.28,7.3-16.68,11.06-25,1.76-3.9,3.65-7.77,5.76-11.49,3.23-5.7,8.59-8.56,14.72-10,5.36-1.23,10.82-2,16.24-3"/><path class="cls-4" d="M772,5.75a39,39,0,0,0-10.81,19.49A44,44,0,0,1,750.5,45.75L732.25,66c-3.47,3.87-6.7,7.9-8.76,12.75-3.61,8.48-10.6,12.48-19.25,14a95.65,95.65,0,0,1-13.49,1.49c-12.92.36-22,7.06-28.67,17.36-2.28,3.5-2.58,7.77-2.07,12,.43,3.51.83,7,1.53,10.49a24.58,24.58,0,0,0,6.51,12.21c5.48,5.68,11.24,11.09,17,16.52a52.34,52.34,0,0,0,5.74,4.52c6.7,4.76,13.52,3.57,20-.3,8.58-5.16,13.69-13.24,17-22.45,2.46-6.85,4.45-13.86,6.84-20.72a46.13,46.13,0,0,1,3.47-7c2.25-4.11,6.28-5.59,10.49-5.92,8-.64,16-.76,24-1.09"/><path class="cls-1" d="M772.5,370.75a21,21,0,0,1-13-9,20.07,20.07,0,0,1-2.26-5,147.22,147.22,0,0,0-11.49-26.51c-2.13-4-4.13-8.21-3.5-13a30.73,30.73,0,0,1,1.5-6.49c2.66-7.46,5-14.95,5-23,0-6.37-3.94-8.95-8.53-8.49-4.42.44-8.89.7-13.23,1.57a56.48,56.48,0,0,1-13,.88,6.41,6.41,0,0,0-6,2.81,134.89,134.89,0,0,1-18.24,21.53c-4.42,4.36-6.51,10.23-8.51,16-3.18,9.16-7.89,17.54-12.53,26-4.77,8.7-7.91,17.88-7,28,.48,5.21,2.94,9.8,5.51,14.22A53.21,53.21,0,0,1,674,406.75,45.73,45.73,0,0,0,684.76,428,43.75,43.75,0,0,1,694,446.75"/><path class="cls-1" d="M772.25,382c-3.67-1.92-7.25-4-11-5.71-6.51-2.89-9.75-8.22-10.91-14.8A54.92,54.92,0,0,0,737.71,335a171.36,171.36,0,0,1-14.2-19.3A13.19,13.19,0,0,0,711,309.33a20.44,20.44,0,0,0-11.23,4.19,28.48,28.48,0,0,0-8.79,11,195.46,195.46,0,0,1-16.13,27.33,43.58,43.58,0,0,0-5.5,11.71c-2.56,8.25-.26,15.57,5.38,22,2.19,2.49,4.31,5.06,6.24,7.75,2.64,3.71,2.69,8.2,3.25,12.48S685.7,414,688,417.48c3.73,5.65,7.45,11.33,11.53,16.72,2.86,3.78,6.09,4.57,10.15.76a96.19,96.19,0,0,0,9.72-10.27,30.63,30.63,0,0,1,10.85-8.64,101,101,0,0,0,18.06-11.43c4.38-3.42,9.57-5.79,14.41-8.62q4.74-2.76,9.5-5.5"/><path class="cls-1" d="M546.5,1.25c1.38,1.8.91,4,1.21,6,.86,5.73,1.34,11.53,2.34,17.23,1.69,9.7,7.63,12.77,15.7,14.74,7.17,1.76,14.54,1.41,21.74.83a57.86,57.86,0,0,1,17.75,1.75c5.7,1.3,11.36,2.56,17.26,2.47A7.76,7.76,0,0,1,629,47.52c5,6.64,7.63,14.1,6.71,22.47-.38,3.46-1.5,6.83-2.17,10.26s-.94,7.12.74,10.5c2.24,4.5,8.84,7.3,14.93,4.14A143.26,143.26,0,0,0,664.72,85c3.69-2.56,5.21-6.74,6.73-10.73a40.35,40.35,0,0,1,8-12.49c2.93-3.26,5.52-6.84,4.71-11.48C682.4,40,677.15,29.76,664,27.71a57.52,57.52,0,0,1-8.5-2.24c-3.48-1.11-6-3.64-5.68-8.22.33-5.43,1.25-10.83,1.92-16.25"/><path class="cls-1" d="M544.25,447c-.17-3.58-.25-7.17-.52-10.75-.61-8.39,2-15.77,6.46-22.79a47.54,47.54,0,0,0,6.09-13.7c3.32-13.2-3-26.4-14.77-31.78-7.51-3.43-15.24-6-23.51-6.71a63.42,63.42,0,0,0-10.74-.43,104.62,104.62,0,0,0-16,2.51c-5.17,1.29-8.68,5-11.32,9.63-4,7.12-5.55,15-7.74,22.76-1.26,4.46-2.35,9.06-4.34,13.2-2.29,4.78-5.31,9.18-10.11,12.1a215,215,0,0,0-21.11,14.85,33.4,33.4,0,0,1-20.91,7.34c-4.33,0-8.08-1.89-11.76-4a38.8,38.8,0,0,0-10.73-4.57c-7.48-1.65-11.38,1.73-12,9.05-.09,1.08,0,2.17,0,3.25"/><path class="cls-1" d="M772.25,244.5a32.68,32.68,0,0,0-10.57,8.44c-4,4.69-8.46,8.93-14.92,10.37-4.33,1-8.62,1.88-13,.9-3-.67-5.37-2.55-7.51-4.71-3.68-3.69-7.25-7.49-11.74-10.26-7.21-4.44-14.57-3.12-18.57,4.73a31.47,31.47,0,0,0-3.23,11.78c-.41,4.6-1.07,9.18-1.72,13.75-.92,6.39-4.73,11.36-8.54,16.21-3.63,4.64-5.37,10-6.65,15.55A129.36,129.36,0,0,1,668,335.52c-3.08,6.84-6.13,13.72-8.7,20.76a49.6,49.6,0,0,0-3.05,21.47,34.78,34.78,0,0,0,3.44,11.51c2.29,4.95,4.59,9.91,6.46,15A94.8,94.8,0,0,1,669.23,416a28.06,28.06,0,0,0,7,13c3.28,3.59,6.62,7.16,8.47,11.76.82,2,1.36,4.16,2,6.24"/><path class="cls-1" d="M259.75,1c-.37,4.83-2.8,8.87-5,13-1.88,3.55-4,7-5.42,10.77A11.34,11.34,0,0,0,252,37.27c5.87,6.23,13.28,9.14,21.52,10.5A144.53,144.53,0,0,0,295,49.3a49,49,0,0,1,9.74,1c4.71,1,7.34,4.26,8.57,8.91a30.37,30.37,0,0,0,3,7.48c1.68,2.9,3.78,3.6,7.16,1,2.11-1.61,3.95-3.55,6-5.2,5.85-4.64,12.81-6.65,20-7.7a108.31,108.31,0,0,1,14.74-1,53.33,53.33,0,0,1,11,1c7.48,1.53,13.28-.93,17.72-6.85a29.65,29.65,0,0,0,4.45-7.5c2.52-7-.05-11.74-6.92-14.2-3.87-1.39-7.55-2.9-10.54-6-3.35-3.43-4.74-7.63-5.64-12.06A54.24,54.24,0,0,1,373.75,1"/><path class="cls-1" d="M173.5,1.25c-.33.92-.73,1.82-1,2.75-3.25,11.74-11.6,17.54-23,19.75-4.41.85-8.85,1.6-13.25,2.52-6.32,1.32-11.31,5.15-15.94,9.29s-9.14,8.32-12.29,13.7C104.65,55,103.61,61.59,102.27,68c-2.31,11.09-7.43,20.13-18,25.24-5.6,2.7-11.7,4-17.76,4.91a162.6,162.6,0,0,1-19,1.55C39.63,100,32,98,24.51,96c-5.58-1.49-11.26-2.87-16.25-6a15.28,15.28,0,0,1-7-9.48"/><path class="cls-1" d="M163.25,1C162,6.38,158.79,10.21,154,13.06c-4.53,2.7-9.54,3.73-14.54,4.62A37.23,37.23,0,0,0,121,26.75c-4,3.51-8.06,6.93-12,10.51A39,39,0,0,0,96.22,60.5c-.88,5.54-1.64,11.2-4.28,16.22C88.48,83.27,82.87,87.55,76,90.26a50.92,50.92,0,0,1-16.75,3.59c-4.88.22-9.5-.23-13.73-2.64-4.38-2.5-6.52-6.7-7.8-11.45a60,60,0,0,0-2.5-7.5C32.79,66.43,28,63,22.47,60.57a62.17,62.17,0,0,0-12-4C7.43,56,4.17,56.33,1,56.25"/><path class="cls-1" d="M537.25,447c-.17-5.25-.16-10.51-.54-15.75-.58-8.05,2.2-15,6.53-21.51a34.92,34.92,0,0,0,5.51-12.24c1.85-9-.53-16.69-7.78-22.47-7.48-6-16.14-8.67-25.72-8.83a55.3,55.3,0,0,0-21,3.79c-6.3,2.43-10.17,7-12.54,13.24-2.44,6.4-3.13,13.15-4.43,19.78-1.65,8.39-3.91,16.66-8.44,23.89-2.51,4-6.5,7.14-10.14,10.29-3.4,2.94-6.78,5.8-8.95,9.81"/><path class="cls-1" d="M15.25,1c-1.75,5.5-4.18,10.89-5.1,16.52-1.59,9.78.17,19.21,10.08,26,5.4,3.72,11.38,6,17.52,8,3.45,1.11,6.65,2.6,9,5.5,2.79,3.44,3.6,7.72,5,11.74.92,2.56,1.75,5.28,3.3,7.46,3.73,5.24,9.35,5.37,14.62,2.7C76,75.7,79.51,70.07,80.21,63a115,115,0,0,0,.94-16.25c-.41-9.09,3.45-15,11.55-18.85a81.08,81.08,0,0,0,14.22-8.75c4.19-3.2,7.64-7.36,11.61-10.87,4.14-3.65,8.79-6.45,14.47-7"/><path class="cls-1" d="M494.75,1c-2.09,4.48-4.6,8.58-9,11.28-3.41,2.1-6.89,1.91-10.52,1a54.19,54.19,0,0,0-8.51-1.94c-7.55-.65-13.37,3.25-19,7.65-4.23,3.3-5.59,7.86-5.88,12.79a24.54,24.54,0,0,0,1,8c.93,3.34,2.47,6.5,3.66,9.77,1.32,3.64,6.54,5.74,11,5.07,8.31-1.23,15.23-5.5,22.21-9.62,5.39-3.18,11-5.18,17.28-4.65,3.52.3,7,1.24,10.5,1.66a24.06,24.06,0,0,0,7.47.15,7,7,0,0,0,4.41-3.17c3.36-7,6-14.32,5.78-22.19a25.72,25.72,0,0,0-5.66-15.5"/><path class="cls-1" d="M154.5,1.25C153.33,2.5,152.25,3.84,151,5c-3.59,3.28-8.16,4.44-12.74,5.21a38.37,38.37,0,0,0-20.8,10.5c-4.8,4.63-10,8.85-15.21,13a34.18,34.18,0,0,0-13.06,23c-.81,6.07-1.34,12.27-4.64,17.78A26.73,26.73,0,0,1,66.75,87.26a23.94,23.94,0,0,1-9.76.27C51,86.45,48.24,82.11,46.26,77,45,73.77,44,70.46,42.73,67.26,41,62.91,37.69,60,33.51,58c-6.11-3-12.24-5.87-18.24-9-4.58-2.41-9.34-4.64-13-8.47a10.26,10.26,0,0,1-1-1.49"/><path class="cls-1" d="M528.75,447c.17-7.08.18-14.17.55-21.25a33.15,33.15,0,0,1,5.9-17.53c2.77-4,5.15-8.23,6.12-13.21,1.13-5.79-.61-10.61-4.36-14.72-4.44-4.86-10.16-7.23-16.7-8.1-8.67-1.14-16.45,1.23-24,5.05-6,3-8.77,8.37-9.94,14.52-2.53,13.21-4.52,26.53-7.16,39.72-1.06,5.29-3.23,10.35-4.9,15.52"/><path class="cls-1" d="M615.75,447c.5-5.17,1-10.33,1.48-15.5.41-4.83,1.19-9.69.92-14.49-.62-11-3.57-21.35-11.19-29.72-3.73-4.09-8.69-6.59-13.73-8.75-4.09-1.76-8.28-3.32-12.49-4.75-2.51-.85-3.79-.34-4.67,2.24a70,70,0,0,0-2.77,11c-1.27,7.61-1.37,15.48-4.36,22.71A115.58,115.58,0,0,1,562.72,422c-2.89,5.15-5.35,10.47-6.41,16.28a72.34,72.34,0,0,0-.56,8.74"/><path class="cls-1" d="M285.25,1c-1,2.17-1.83,4.43-3,6.48A110.79,110.79,0,0,1,269.5,24.25c-.35.4-.69.82-1,1.25-3.1,4.47-2.36,7.38,3.31,10.13,3.43,1.66,7.41,2.27,11.2,3.07a40.58,40.58,0,0,0,8.49,1,39.56,39.56,0,0,0,15.25-2.93c2.49-1,5.06-1.89,7.49-3,5.55-2.61,10.37-.83,15,2.27,2.34,1.57,4.6,3.29,7,4.72,3.34,2,7.1,2,10.72,1.22a26.66,26.66,0,0,0,12-5.44c3.62-3.08,5.95-6.89,5.71-11.75-.33-6.42-1-12.83-1.44-19.25-.11-1.49,0-3,0-4.5"/><path class="cls-1" d="M517.25,447a56.06,56.06,0,0,0,4-22.25c-.28-7.56,2.89-14,6.69-20.28a42.15,42.15,0,0,0,4.22-8.74c2.29-7.22-1.72-12-7.18-14.73-9.3-4.61-22.79,1.21-27.5,8a25,25,0,0,0-4.18,11.51c-.9,7.89-1.32,15.83-2.09,23.74s.53,15.29,2.52,22.75"/><path class="cls-1" d="M724.5,1.25c-1.42,1.58-2.87,3.14-4.24,4.75a43.25,43.25,0,0,1-26.51,14.78A9.28,9.28,0,0,0,690.27,22c-3,1.95-2.29,5-1.72,7.7,1.45,7,5.25,12.85,9.74,18.22a63.25,63.25,0,0,0,7.49,7.51c6.91,5.9,14.88,6.52,22.72,1.52a50.28,50.28,0,0,0,18.91-22.28,19.31,19.31,0,0,0,1.41-11.22,60.39,60.39,0,0,1-1-12C748,8,749.08,4.5,749.75,1"/><path class="cls-1" d="M266.25,447c2.23-4.75,3.77-9.74,3.43-15-.4-6.38-1.08-12.74-3.65-18.76-2.32-5.46-7.07-5.48-11.25-3.18a31,31,0,0,0-5.27,4.2c-3.62,3.21-7,6.68-10.8,9.69-4,3.18-9,3.9-14,4.3-9.23.74-17.12-2.91-24.76-7.49-3.6-2.15-7.48-3.77-11.74-3.46-7.82.57-16.2,5.77-17.6,14.94-.64,4.19,0,8.18.35,12.26.07.83.17,1.67.25,2.5"/><path class="cls-1" d="M605.75,447c1.92-8.25,4.22-16.43,5.65-24.77,1.89-11,0-21.33-8.17-29.71a17.68,17.68,0,0,0-11.73-5.21c-4.55-.32-9.1,2.51-10.73,8.45-1.1,4-2.16,8-3,12a35.18,35.18,0,0,1-5,11.48c-3.23,5.21-7,10.15-8.94,16a87.22,87.22,0,0,0-2,9c-.19.91-.33,1.83-.5,2.75"/><path class="cls-1" d="M360.75,447c-1.08-3.25-1.95-6.59-3.3-9.73-2.14-5-6.78-7.16-11.46-9-6.94-2.69-13.94-5.14-20.53-8.71a113.61,113.61,0,0,0-16.75-7.7,60,60,0,0,0-20.46-3.67c-8.18.11-10.35,6.07-9.75,12.55.78,8.54,3.9,16.45,6.49,24.5a10.26,10.26,0,0,1,.26,1.75"/><path class="cls-1" d="M1.25,193.5c2.25,1.25,4.58,2.37,6.73,3.78,5.23,3.4,8.12,8.72,11,14,2.28,4.17,4.44,8.41,5,13.24.4,3.17.74,6.35,1.27,9.5.84,4.93,1.86,9.82,2.72,14.75,1.09,6.33,2.18,12.66,0,19A24.51,24.51,0,0,1,20,279a33.74,33.74,0,0,0-10,13.49,57.41,57.41,0,0,1-8.77,15"/><path class="cls-1" d="M772.5,202.25c-3.33-.92-6.65-1.91-10-2.73-8.45-2.08-16.65-1.58-24.51,2.47-6.64,3.42-9.47,9.08-9.73,16.26-.22,6.22,1.27,11.75,6,16.29,4.13,4,8.7,5.19,14,3.19,6-2.26,12-4.71,18-6.94a54.65,54.65,0,0,1,6.24-1.54"/><path class="cls-1" d="M772,31.25c-4.25,5.08-8.39,10.26-12.77,15.23-7.32,8.31-15,16.31-21.18,25.55a35.06,35.06,0,0,0-5.8,17c-.16,2.08-.26,4.18-.52,6.25-.23,1.82.69,2.69,2.27,3,7.25,1.36,14.47,2.85,21.76,4,4.53.68,9.16.71,13.74,1.07,1,.08,2,.32,3,.49"/><path class="cls-1" d="M552,1.25c.42,1.83.88,3.66,1.24,5.5,1.14,5.71,2.06,11.45,4.72,16.77,3,6,8.12,8.38,14.29,8.67,11,.5,20.6-3.84,29.17-10.06C609.07,16.58,616.56,10.9,625.23,7a10.75,10.75,0,0,0,6-6"/><path class="cls-1" d="M299.75,1c-1.5,5.25-3.15,10.46-4.46,15.76-1.44,5.82,2.15,9.23,8,7.72a31.53,31.53,0,0,0,6.23-2c6.69-3.36,13.23-2.64,19.77.31A58.88,58.88,0,0,0,335,25.45c4.09,1.34,8.2,2.6,12.26-.42,3.53-2.61,4.77-6.28,4.91-10.28.15-4.57-.26-9.17-.43-13.75"/><path class="cls-1" d="M596.25,447c1.58-7.33,3.19-14.66,4.74-22,1.21-5.7,2.06-11.47.69-17.23a13,13,0,0,0-2.75-5.45c-2.14-2.41-6.76-2.84-8.42,2.18a45.28,45.28,0,0,0-1.72,5.76c-.77,4-2.91,7.23-5.52,10.25-3.41,3.95-7,7.8-9.94,12A26.34,26.34,0,0,0,568.25,447"/><path class="cls-1" d="M772.5,278.25c-6,.81-9.69,4.5-12,9.76a33.12,33.12,0,0,0-.78,25c1.19,3.41,2.58,6.77,3.43,10.27a27.53,27.53,0,0,1,.73,9.24c-.67,7.07-.42,14.26,3.17,20.69,1.23,2.21,3.42,3.88,5.17,5.8"/><path class="cls-1" d="M772.5,126.25c-13.65,3.26-22.79,12.51-30.72,23.28a21.15,21.15,0,0,0-3.93,12.22c-.08,4,1.5,7.81,5.21,9.64a11.23,11.23,0,0,0,10.7-.63c4.18-2.35,7.07-6.08,10.23-9.52,2.8-3,5.51-6.16,8.26-9.24"/><path class="cls-1" d="M348.5,446.75c-1.79-6.9-7.21-10-13.27-11.93-7.14-2.32-13.7-5.69-20.29-9.2-5.09-2.71-10.62-4.77-16.69-4.4-3.62.22-5.31,2-5.55,5.53-.34,5.12,2.06,9.54,3.33,14.24.56,2.05,1.47,4,2.22,6"/><path class="cls-1" d="M1.25,209c2.08,3,4.58,5.8,6.15,9.05,2.08,4.3,3.42,9,5.1,13.45C14.32,236.34,16,241.22,18,246a29.11,29.11,0,0,1,2.68,11,16.73,16.73,0,0,1-5,12.48c-4.09,4.08-8.33,8-12.47,12a27,27,0,0,0-2,2.49"/><path class="cls-1" d="M239.25,447c-.5-5.29-2.11-6.93-7-8.14-5.3-1.31-10.8-1.8-16.22-2.6a69.93,69.93,0,0,1-17.25-5,20.65,20.65,0,0,0-8.5-2.06c-5.69.05-8.83,3.9-9.37,8.57-.35,3,.54,6.15.87,9.23"/><path class="cls-1" d="M772,46.25a82.46,82.46,0,0,0-25.68,27,20,20,0,0,0-2.48,7.47c-.66,4.76,1.49,8.28,5.64,10.77a37.25,37.25,0,0,0,14,4.7c3,.44,6,.69,9,1"/><path class="cls-1" d="M557.75,1c1.08,6.72,2.67,13.22,7.74,18.26,3.86,3.82,8.67,4.24,13.49,3.15,5.8-1.31,10.76-4.6,15.25-8.44,3.94-3.37,7.68-7,11.53-10.46.87-.8,1.82-1.51,2.74-2.26"/><path class="cls-1" d="M190.25,1c1.79,9.45,6.6,13,16,14.65a102.47,102.47,0,0,0,16,1,24.7,24.7,0,0,0,7.24-1.22c5.37-1.57,8.6-6.31,8.76-12.45,0-.67,0-1.33,0-2"/><path class="cls-1" d="M772.25,401a45.22,45.22,0,0,0-20.46,12.54A57.54,57.54,0,0,1,739,424a127,127,0,0,0-11,7.24c-5.63,4.14-9.88,9.56-13.53,15.47"/><path class="cls-1" d="M1,183.25c4.87.92,9.67,2.48,14.75,1.51,3.58-.68,5.67-3,6-6.76,1.16-12.69-9.52-22.16-20.76-22.25"/><path class="cls-1" d="M772.25,410A23.5,23.5,0,0,0,759,420.24,35.07,35.07,0,0,1,744.26,433a56.26,56.26,0,0,0-15,9.75c-1.32,1.26-2.51,2.66-3.76,4"/><path class="cls-1" d="M772.5,56.75c-8.41,4.3-14.45,10.73-17.47,19.76-1,3,.41,6.47,3,8.5a23.07,23.07,0,0,0,10.26,4.22c1.4.27,2.83.35,4.25.52"/><path class="cls-1" d="M661.75,1c.17,2,.35,4,.5,6,.52,7,6.77,10.13,12.25,10.3,5.76.18,7.56-.21,7.74-7.8.07-2.83,0-5.67,0-8.5"/><path class="cls-1" d="M24.75,447c.27-7.45-2-14.16-5.74-20.5-2.93-5-7.46-7.44-13-8.24-1.66-.24-3.33-.34-5-.51"/><path class="cls-1" d="M563.75,1c1,3.29,2.12,6.55,4.75,9,4.17,3.89,8.93,4.21,13.71,1.67a74.56,74.56,0,0,0,9.27-6.44c1.6-1.2,3-2.65,4.52-4"/><path class="cls-1" d="M1.25,242.5c1.58,2.08,3.09,4.23,4.76,6.24,3.92,4.7,4.23,9.51,1.53,13.54-1.68,2.52-4.08,4-6.54,5.47"/><path class="cls-1" d="M690.5,1.25a6.91,6.91,0,0,1,1.23,1.51c3,7.22,10,7.57,15.73,3.43,1.86-1.36,3.21-3.44,4.79-5.19"/><path class="cls-1" d="M84.5,1.25c1.67,1.92,3.11,4.11,5,5.69,4.59,3.76,8.06,2.56,12.16-.49A50.87,50.87,0,0,0,107,1.25"/><path class="cls-1" d="M322.5,1.25c2.25,2.08,4.24,4.6,6.81,6.16,5,3,8.76,1.45,9.68-4.16.13-.74.18-1.5.26-2.25"/><path class="cls-1" d="M1.25,428a10.6,10.6,0,0,0,1.51,1C9.49,432,11,437.74,10,444.5c-.13.83-.18,1.67-.26,2.5"/><path class="cls-1" d="M678.75,447a13.8,13.8,0,0,0-8.25-8c-2.22-.77-4,0-4.71,2.25a52.23,52.23,0,0,0-1,5.74"/><path class="cls-1" d="M209,1.25a36.3,36.3,0,0,0,3.76,2.47,7,7,0,0,0,8.5-1.21A15.76,15.76,0,0,1,223,1.25"/><path class="cls-1" d="M91.5,446.88H101"/><path class="cls-1" d="M580.5,1.25h-5"/><path class="cls-1" d="M319,211.75a22.57,22.57,0,0,0-8.74,4.76c-.92.86-1.81,1.82-1.25,3.24a3.8,3.8,0,0,0,3.49,2.51c4.61.39,8.9-3.76,9.69-8.27.34-2-1.3-2.35-2.94-2.24"/><path class="cls-1" d="M29.5,14.25C20.32,16.53,18,26.54,22,33.23c3.42,5.67,10.29,9.58,18,7.49,2.59-.7,4.55-2.59,4.68-5.22.35-7.36-1.63-14-7.43-19a10.49,10.49,0,0,0-7.49-2.26"/><path class="cls-1" d="M545,251.25c-7.63,1.21-12.09,6.68-16.51,12.24-3.43,4.31-6.87,8.61-10.52,12.73a27.31,27.31,0,0,1-12.47,8c-4,1.26-4.67,3.41-4,7.76,1.13,7.5,2.11,15,3.28,22.5.93,5.94,1.93,11.87,5.47,17,2.92,4.26,6.92,6.42,12,7.32,6.28,1.1,11.53-.94,16.5-4.34,2.06-1.42,4.08-2.91,6-4.51,4.07-3.4,9.15-3.94,14-5.3a21.78,21.78,0,0,0,7.69-3.53c3.68-2.95,3.9-7,2.36-11.41-1.63-4.62-3.24-9.27-4.48-14a51.9,51.9,0,0,1-.32-24.5,45.25,45.25,0,0,0,1.21-8c.19-5.41-1.53-7.67-6.69-9.76a30.36,30.36,0,0,0-13.25-2.24"/><path class="cls-1" d="M485.5,208.25c-6.95,1.37-12.21,5.81-17.75,9.75-8.3,5.9-16.91,11.19-27,13.49-4.4,1-8.82,1.9-13.25,2.75-7.34,1.4-11.59,6.09-14.29,12.75-2,5-2.28,10.26-1.89,15.51a8.58,8.58,0,0,0,6.94,8.21c4.21,1,8.47,1.82,12.74,2.51,4.76.77,8.9,3,13,5.29s8,4.6,12,7c4.94,3,10.44,4.28,16,5.2,8.56,1.43,15.63,5.27,20.44,12.58,2.62,4,4,8.58,5.34,13.2,1.58,5.55,3.27,11.08,5.26,16.49,2.58,7,8.13,10.6,15.2,12.29a55.87,55.87,0,0,0,26.5,0c7.34-1.78,14.76-3.36,22-5.58,6.78-2.08,11.95-6.24,14.86-13.13,2.75-6.5,1.78-12.52-1.1-18.52-2-4.13-4.23-8.14-6.21-12.27-5-10.43-3.83-20.47,2-30.25,2.26-3.83,4.12-7.86,4-12.49-.12-6.11-3.79-9.6-8.75-10.21-4.15-.52-8.33-.73-12.5-1-7.25-.53-14.5-1-21.75-1.51-2.08-.15-4.19-.21-6.24-.54a3.12,3.12,0,0,1-2.77-3.46,74.91,74.91,0,0,0,0-8.74,82.41,82.41,0,0,0-2-11.49c-1.06-4.11-4.37-6.62-9.44-6.73-2.66-.06-5.33.44-8,.42-3.42,0-6.84-.25-10.25-.47-4.25-.28-8.5-.66-12.75-1"/><path class="cls-1" d="M544.5,266.75c-3.57,1.06-6,3.85-7.9,6.57-6.6,9.23-13.15,18.54-19,28.27a22.48,22.48,0,0,0-1.89,19.16c2.07,6,8.16,7.48,12.23,3a36.1,36.1,0,0,0,4-5A72.19,72.19,0,0,1,543.25,305c3.92-3.82,6.88-8.24,7.72-13.75.81-5.31,1.39-10.64.29-16-.25-1.23-.26-2.52-.53-3.75-.7-3.18-1.8-5.15-6-4.75"/><path class="cls-1" d="M365.5,271.75c-4,.7-7.08,3-10,5.53-4.26,3.72-8.46,7.52-12.48,11.51-3.1,3.06-5.68,6.67-8.84,9.65A129.1,129.1,0,0,1,322.71,308c-2.8,2.1-5.52,4.12-7.22,7.29-3.14,5.86-2.55,11.89-.42,17.74,2.95,8.11,9.16,13.25,16.94,16.49,7.59,3.16,15.22,6.12,22.54,9.94A51.81,51.81,0,0,0,373,364.73c8.33.91,12.94,5.69,15.31,13.5a76.74,76.74,0,0,0,10.16,22c3.21,4.6,6.77,8.71,11.76,11.51a17.36,17.36,0,0,0,16.51.7c7.42-3.36,14.36-7.55,20-13.52,6.58-7,11.39-15.17,12.93-24.73,1.14-7.13-.61-13.64-7.4-17.72-4.64-2.8-9.33-5.49-14-8.27-5-3-8.94-7.25-12.66-11.57A57.4,57.4,0,0,0,411.76,325c-1.8-1.1-3.53-2.3-5.26-3.49-3.49-2.41-5-6-5.21-10-.32-6-.19-12-.6-18-.3-4.35-.63-8.89-4.46-12a13.67,13.67,0,0,0-4-2.47q-10.44-3.54-21-6.75a28.21,28.21,0,0,0-5.48-.55"/><path class="cls-1" d="M757,214.25c-.42.17-.83.35-1.25.5-1.78.62-3,1.76-2.46,3.74s2.51,2.39,4.2,2.18a12.18,12.18,0,0,0,4.72-1.73c1.72-1.06,1.46-3.09-.48-3.88a21.23,21.23,0,0,0-4.48-.81"/><path class="cls-4" d="M529,187.25c-5.54,1.17-10.13,4.38-15,7-4.4,2.38-8.91,4.27-14,4.52-4.34.21-8.66.68-13,1-5.66.36-10.26,3.1-14.48,6.53-5.75,4.68-11.48,9.34-18.26,12.49-5.65,2.62-11.46,4.7-17.76,4.7a40.41,40.41,0,0,1-8.73-.78c-4.6-1-9-1.22-13.26,1.09A21.34,21.34,0,0,0,404.35,236c-1.33,4-1.81,8.29-2.59,12.47s-1.3,8.16-3.15,12.05c-1.71,3.57-7.89,6.57-12.1,5.43-5.2-1.41-10.34-3-15.51-4.48-7.2-2.09-13.75-1.22-19.52,4-3.56,3.2-7.38,6.11-11,9.29a56.66,56.66,0,0,0-11,13.46A29.1,29.1,0,0,1,317.27,299a52.55,52.55,0,0,0-8.23,5c-4.91,3.79-6.84,9.23-7.83,15.19-1.46,8.73,2.84,15,8,21.31,7.25,8.89,16.87,14,27,18.5,4.21,1.87,8.19,4.28,12.27,6.45,6.58,3.5,13,7.29,19.79,10.42,7.75,3.59,12.81,9.58,16.7,16.84,2.07,3.87,3.89,7.89,6,11.72A38.54,38.54,0,0,0,405.74,419c4.51,2.63,9.16,4.83,14.5,4.16a21.44,21.44,0,0,0,7.47-2.25,124,124,0,0,0,23-16c7.94-7.12,12.07-16.65,15-26.69A56.44,56.44,0,0,0,468.29,363c.11-8.83-4.8-13.31-11.29-16.24-4-1.8-8.08-3.35-12-5.3-6.4-3.19-10.68-8.55-14-14.72-4.38-8.12-8-16.53-9.53-25.74-1-5.78.67-9.59,7-10.37,8.67-1.08,16.81.91,25,2.89,4.62,1.12,9.13,2.69,13.77,3.69,11.27,2.43,19,8.75,22.73,19.79,2.12,6.32,4.36,12.61,6.21,19,2.31,8,7.75,12.21,15.56,13.71,6.8,1.31,13.63,2.6,20.5,3.46,6.46.82,13,.81,19.48,1.65a121.11,121.11,0,0,1,16,3.24c5.4,1.47,6.66,1.34,10-3.07,6.17-8.14,11-17,13.22-27a30.3,30.3,0,0,0-3.41-22.77,139,139,0,0,1-7.26-14.49c-3.15-7.16-1.63-14.05,2.24-20.45,3-5,5.9-10,6.91-15.79,1.77-10.08.88-19.65-6.71-27.48a14.91,14.91,0,0,0-11-4.6c-3,0-6,1.49-9,2.34-2.84.82-5.62,2-8.51,2.44-6.54,1-10.12-1.76-12.27-7.18-1.57-3.94-1.4-7.95-1-12,.36-3.26.85-6.5,1.23-9.75.56-4.7-3.1-8.73-7-9.95a44.12,44.12,0,0,0-6-1.05"/><path class="cls-1" d="M639,183.75c-.25.08-.5.18-.75.25-4.66,1.28-6,4.66-3.2,8.72,2.36,3.4,5.05,6.58,7.73,9.76a43.29,43.29,0,0,0,4.74,4.74c1.7,1.49,3.87,2.19,6,1.21s3-3.25,3.29-5.68c.9-9-5.57-14.58-12.27-17.47a43.84,43.84,0,0,0-5.24-1.53"/><path class="cls-1" d="M644,283.25c-7.85,2.42-12.58,7.87-13.86,15.77-.65,4,0,8.33.41,12.48.33,3.44,1.46,6.82,1.61,10.25a19.65,19.65,0,0,1-3.42,11.75c-1.72,2.6-3.54,5.13-5.23,7.76-5.47,8.49-1.22,21.33,8,24.23a4.46,4.46,0,0,0,4.76-1,16.42,16.42,0,0,0,4.71-7.77c2.17-8.23,4.24-16.48,6.27-24.74,2.14-8.74,4.35-17.46,6.19-26.26,1-4.74,2-9.54.85-14.5-1.66-7-2.72-8-10-8"/><path class="cls-1" d="M183,289.25c-1.25.25-2.5.48-3.75.75-5.88,1.29-10.19,4.73-13.8,9.46-3.82,5-7.56,10.13-12.66,14.09-4.12,3.2-8.91,4.86-13.53,7-2,.89-4.12,1.66-5.71,3-4.08,3.57-8,7.32-11.75,11.24a36,36,0,0,0-5.25,7.23c-4.32,7.64-2.43,15,1.75,21.94a17.23,17.23,0,0,0,3.72,4,12.86,12.86,0,0,0,19.15-3.28c2.2-3.55,3.6-7.61,5.32-11.45,1.2-2.66,2.07-5.5,3.57-8,2.9-4.77,7.66-6.88,12.95-7.47a123.85,123.85,0,0,1,17-1c9.13.24,15.88-3.39,21.05-10.81,4.18-6,6.85-12.35,6.19-19.78-.75-8.39-4.23-15.66-14.49-16.49-3.16-.25-6.33-.34-9.5-.51"/><path class="cls-1" d="M261,291.25c-3.71,1.46-5.47,4.68-7,8-2.54,5.65-3.85,11.37-1.31,17.51,3.09,7.44,8.94,10.46,16.53,8.45,4.37-1.15,6.18-5.15,5.58-10-.91-7.24-3.88-13.53-7.83-19.48-1.4-2.12-2.8-4.32-5.74-4.51"/><path class="cls-1" d="M368,294.75c-3.33.67-6.67,1.29-10,2A34.53,34.53,0,0,0,340.74,306c-3.79,3.71-7.7,7.3-11.48,11-5.61,5.53-6.42,13.8-1.26,20a18.51,18.51,0,0,0,9,5.71,180.2,180.2,0,0,1,21.77,8.23,16.26,16.26,0,0,0,10.71,1.28c5.63-1.37,8.29-4.83,9.19-10.73a91.38,91.38,0,0,0,.56-11.24,42.85,42.85,0,0,0-3.48-17c-1.73-4.34-3.2-8.78-3-13.5.2-3.8-1.49-4.67-4.55-5"/><path class="cls-1" d="M183.5,300.25c-7.39,1.88-11.8,7.1-14.42,13.78-2.48,6.32-.14,9.51,5.19,11.4,11.39,4,21-.07,23.33-13a10.25,10.25,0,0,0-10.35-12.22h-3.5"/><path class="cls-1" d="M454,303.25c-3.24.75-6.5,1.37-8.77,4.24a16.65,16.65,0,0,0,0,20.5c2.56,3.11,5.95,4.93,9.72,6.31,7.31,2.67,14.6,5.43,21.74,8.51,5.77,2.49,7.52-.62,8-5.07,1-9.91-2.94-18.46-8.53-26.17-3.76-5.18-9.8-6.87-15.91-7.8-2-.3-4-.35-6-.52"/><path class="cls-1" d="M254.5,161.75c-3.22,1.14-4.8,3.77-5.71,6.76-1.64,5.38-3.08,10.81-4.53,16.24a32.29,32.29,0,0,0-.07,15.51c1.44,6.57,1.58,13.26,1.65,20,.06,6.37,3.25,8.81,8.15,8.43a18.26,18.26,0,0,0,6.48-1.75c3.78-1.85,7.37-4.09,11-6.18a30.67,30.67,0,0,1,13.5-4,93.17,93.17,0,0,0,9.74-1c4.13-.71,5.33-3.27,4-7.47-1.41-4.54-4.63-7.46-8.54-9.71-3.16-1.82-6.55-3.25-9.72-5.05-7-4-11.21-10.25-14.27-17.48-1.35-3.19-2.74-6.38-4.27-9.49-1.44-2.94-3.47-5.2-7.22-4.76"/><path class="cls-1" d="M712,328.25c-6.31.62-9.91,4.88-13,9.76-4.13,6.55-8.19,13.15-12.25,19.75a12.53,12.53,0,0,0-1,2.24c-1.31,3.65-.43,6.23,3,8,6.68,3.41,13.63,6.36,21,7.67A43.25,43.25,0,0,0,733,373.52c5.5-2.07,7.64-6.46,8.19-11.78.76-7.31-2.22-13.41-6.67-19a48.75,48.75,0,0,0-13.34-11.13c-2.67-1.63-5.94-2.27-8.94-3.35"/><path class="cls-1" d="M55.5,332.25c-8.5,2.33-13.53,8.37-17,16a11.94,11.94,0,0,0-.38,9.18c2.33,5.77,6.49,8.34,13.06,5,7.6-3.91,13.76-9.52,16.29-18.15,1.49-5.07-.65-9.92-5.52-11.66-1.88-.66-4.14-.26-6.22-.34"/><path class="cls-1" d="M406,340.25c-4.56,1.62-6.69,4.6-6.75,9.5,0,2.58.16,5.18,0,7.75-.37,4.84-1,9.66-1.44,14.5-.73,8.89.86,17.15,6.71,24.27,3,3.64,6.42,6.68,11,7.94,5.34,1.47,10.4.27,15.24-2.2a33.15,33.15,0,0,0,17-19.77c2.74-8.31.69-13.84-5.71-18.75-8.62-6.62-17.13-13.39-25.79-19.95-2.87-2.19-6.12-3.8-10-3.29"/><path class="cls-1" d="M725.25,20c-6.34.65-11.24,4.26-16,8-3.49,2.8-3.9,6.23-1.79,10.21,3.45,6.48,11.37,10.6,17.72,7.69a16.23,16.23,0,0,0,9.55-12.69,11.61,11.61,0,0,0-3.76-11A9.14,9.14,0,0,0,725.5,20"/><path class="cls-1" d="M129.5,345.25a7.49,7.49,0,0,0-6.53,6c-1,3.91,2.28,8.82,6.28,9,2.3.09,3.86-1.32,5-3.22a7.7,7.7,0,0,0-4.5-11.75"/><path class="cls-1" d="M718.5,345.75c-4.63,2-6.32,4.41-6.25,9a6.4,6.4,0,0,0,4.26,6.24,11.15,11.15,0,0,0,10-.52c3.61-2,4.34-7.18,1.5-10.7-2.34-2.9-5.37-4.49-9.23-4"/><path class="cls-1" d="M225.5,357.25c-8.95,2.38-17,6.7-25,11.23a28.9,28.9,0,0,0-11,11.53c-3.17,5.7-6.14,11.52-9.29,17.23-1.76,3.19-1.36,4.37,2.27,5.25,7.52,1.83,14.15,5.49,20.5,9.76,4.05,2.72,8.09,5.47,13,6.51,7.78,1.65,14.69,0,20.48-5.54,2.64-2.51,4.89-5.44,7.55-7.94a125.12,125.12,0,0,1,11.26-9.72c7.24-5.29,7.12-14.73,2.11-20.73-6.31-7.57-14.53-12.87-23.69-16.49-2.42-.95-5.29-.76-8-1.09"/><path class="cls-1" d="M291,358.25c-1.67.42-3.37.73-5,1.27-4.48,1.48-5.87,3.6-6.31,8.23a41.79,41.79,0,0,0,1,12c1.25,6.44,5.48,10.17,11.09,12.43,6.77,2.73,14,3.41,21.22,3,4.59-.25,9.17-.91,13.75-1.46,4.16-.5,5.57-2.95,4.79-7.25-1.62-8.81-6.76-15-14.05-19.72-5.42-3.47-11.12-6.45-17.5-7.72a81.55,81.55,0,0,0-8.74-.8"/><path class="cls-1" d="M151,149.25a17.72,17.72,0,0,1-2.25.49,8,8,0,0,0-7.2,5.53,7.68,7.68,0,0,0,1.94,8.49c2.88,3,6.53,4,10.5,4.54,4.87.7,9.55-.21,14.26-1.05.26-.05.5-.18.75-.25,5.63-1.62,6.11-3.19,2-7.24-4.37-4.28-9.18-7.91-15.24-9.5-1.49-.39-3-.68-4.5-1"/><path class="cls-1" d="M418.5,365.75c-7.36,2.37-12,8.48-11.7,16A14.21,14.21,0,0,0,418,395.23c8.34,2,16.24-5,17.48-11.23a11.27,11.27,0,0,0-.75-7.75c-3.41-6.4-8.94-9.62-16-10.5"/><path class="cls-1" d="M207.5,26.25c-3.17.75-6.47,1.16-9.47,2.32-6.68,2.59-11.69,6.89-13,14.43-1.12,6.23,2.28,14.23,8.51,16.26A9.79,9.79,0,0,0,203,57.7c1.86-1.42,3.29-3.38,5.06-4.93,3.86-3.4,7.86-6.63,11.71-10.05a30.52,30.52,0,0,0,5-5.26c2.84-4.13,2-7.31-3.21-9.69-4.39-2-9.1-1.5-13.74-1.52"/><path class="cls-1" d="M221.5,369.25a47.63,47.63,0,0,0-12.26,4.49c-6.26,3.53-9.5,8.82-9.47,16,0,4,1.95,7.42,4.55,10.18A25.33,25.33,0,0,0,215,406.56c5.24,1.73,9.62,0,13.47-3.12,5.43-4.44,10.67-9.15,15.76-14,3.64-3.45,3.74-7.44,1-10.4-5.6-6-12.27-10.13-20.93-9.81-.83,0-1.67,0-2.5,0"/><path class="cls-1" d="M610.5,147.75c-3.33.94-6.39,2.25-8.52,5.24-3.9,5.47-3.35,10.84,0,16.75.82,1.43,2,2.64,3,4,2.2,3.22,4.83,6.27,6.41,9.78,3.66,8.1,8.69,15.19,14.28,22a66.2,66.2,0,0,1,7.74,11.74c4.88,9.53,12.45,13.64,23.07,14.13,9.28.42,14.09-7.48,15.26-14.17,1.46-8.32-.28-16.4-1.79-24.49a44,44,0,0,0-2.24-7.5c-2.17-5.66-7-8.42-12.23-10.49-4.63-1.83-9.39-3.36-14-5.31A32.81,32.81,0,0,1,625.7,156c-1.75-2.9-3.78-5.56-7.15-7.13-2.61-1.22-5.17-1-7.8-1.15"/><path class="cls-1" d="M518,121.25c-4.59,1.14-8.66,3.26-10.95,7.53-3.19,5.94-4.22,12.31-1.5,18.7,3.24,7.64,10.84,9.09,16.89,3.7A34.9,34.9,0,0,0,533.18,132c.88-4.16-1.45-8.06-5.91-9.77-3-1.14-6-.9-9-1"/><path class="cls-1" d="M303.5,376.75a13.23,13.23,0,0,0-2,.77,2.39,2.39,0,0,0-.49,4c2.49,2.12,5.81,1.7,7.39-.79.31-.5-.32-2.14-1-2.61a13.94,13.94,0,0,0-3.69-1.33"/><path class="cls-1" d="M64,120.75c-3.52.77-7.07,1.31-10.27,3.22-4.23,2.53-7.42,5.68-6.91,11a9.81,9.81,0,0,0,1.76,5.2c4.91,5.8,11.05,9.55,18.92,9.53,5.86,0,10.2-3.06,13.76-7.47a13.36,13.36,0,0,0,2.93-10.74c-.56-3.69-3-6.08-6.16-8.06-4.31-2.72-9-2.79-13.78-2.7"/><path class="cls-1" d="M699,120.25a25.42,25.42,0,0,0-4.72,1.79c-5.5,3.41-6.9,10.27-2,16,3.19,3.73,7.88,4.85,11.75,3a11.76,11.76,0,0,0,6.26-11.48,9.87,9.87,0,0,0-7.26-9,17.77,17.77,0,0,0-3.74-.29"/><path class="cls-1" d="M482,234.75a45.84,45.84,0,0,0-6,3c-5.25,3.71-10.42,7.56-15.51,11.48-4.06,3.13-4.65,9.34-.78,14,3.57,4.28,8.56,5.26,13.74,2.71a15.62,15.62,0,0,0,7.42-8.51,58.41,58.41,0,0,0,3.86-18.71,3.6,3.6,0,0,0-2.51-4"/><path class="cls-1" d="M7.5,391.75a17.08,17.08,0,0,0-3.7,2.3A3.44,3.44,0,0,0,5.27,400c2.18.74,5.46.8,6.67-2a5.79,5.79,0,0,0,.45-3.93c-.71-1.93-2.58-2.54-4.64-2.29"/><path class="cls-1" d="M323.5,117.75c-3.58.88-6.3,3.14-9,5.48-3.68,3.17-7.37,6.34-11.26,9.23s-6.79,6.2-6.44,11.29c.56,8.2,5.83,11.67,12.71,11.13,3.89-.31,7.71-1.77,11.5-2.91,3.38-1,6.61-2.57,10-3.41,5.24-1.28,7.24-5.46,6.68-11.05a30.38,30.38,0,0,0-5.46-15.25c-2.09-2.85-4.81-4.6-8.49-4.51"/><path class="cls-1" d="M392,117.25c-7.55,2.43-10.8,6.69-11.23,15a144.56,144.56,0,0,0-.42,16.24c.42,6.78,1.4,13.54,2.47,20.25.56,3.57,3.1,4.47,6.17,2.49,4.5-2.91,7-7.33,8.73-12.24a45.5,45.5,0,0,0,2.51-14.49c.07-5.33.08-10.67,0-16a24.78,24.78,0,0,0-.75-5.49c-.93-3.68-3.39-5.63-7.22-5.76"/><path class="cls-1" d="M699,113.25a48.43,48.43,0,0,0-5.49,1.53c-5.67,2.31-9.73,6.33-10.68,12.48-1.11,7.18,1.84,13,7.42,17.48a17,17,0,0,0,9.25,4c5.8.53,10-2.34,12.94-6.8a23.63,23.63,0,0,0,3-20.43c-1.78-6.11-6-7.61-11.41-8.25a39.59,39.59,0,0,0-4.75,0"/><path class="cls-1" d="M65.5,113.25c-4.42,1.08-8.89,2-13.23,3.3a26.64,26.64,0,0,0-11.5,7c-5.21,5.35-6.18,10-1.94,16.68a37.15,37.15,0,0,0,7,7.75,59.7,59.7,0,0,0,16.94,10.34c6,2.43,11.47,1.59,16.76-1.79A108.51,108.51,0,0,0,97,142.77c3.61-3.52,4.36-7.65,3-12.26-2.75-9.11-9.46-13.82-18.22-16.28-5.29-1.49-10.67-.79-16-1"/><path class="cls-1" d="M528,112.25c-2.25.17-4.53.15-6.74.54-3.86.69-7.83,1.22-11.48,2.56-5.52,2-8.87,6.49-10.74,11.91-2.7,7.81-3.8,15.82-1.78,24,2.22,8.94,9.59,14.76,18.73,16.06,6.34.91,10.32-2.13,13.22-7.08,3.26-5.57,6.25-11.29,9.28-17a133.67,133.67,0,0,0,6.4-12.78,19.32,19.32,0,0,0,1.24-8.45c-.4-5-4.7-8.72-9.88-9.24-2.66-.27-5.33-.35-8-.52"/><path class="cls-1" d="M702,106.75c-2.75.5-5.55.82-8.24,1.53-10.48,2.79-17.41,11.38-17.44,21a22.85,22.85,0,0,0,6.75,15.93,43.05,43.05,0,0,0,9.48,7.72c8,4.64,16.68,1.61,22-4.89a30.16,30.16,0,0,0,6.65-16.77,65.86,65.86,0,0,0,0-14.72c-1.12-8-6.45-9.07-12.13-9.73a60.77,60.77,0,0,0-6.75,0"/><path class="cls-1" d="M321,105.75c-4.71,1.15-8.06,4.48-11.45,7.56-4.33,3.94-9.3,6.79-14.27,9.73a31.41,31.41,0,0,0-6.72,5c-3.3,3.44-3.2,7.81-2.31,12.19,1.1,5.39,2.38,10.69,5.23,15.51A15.61,15.61,0,0,0,304,163.67a105.12,105.12,0,0,0,16.73.47c6.17-.4,12.37-1.17,18.27-3.37,6.06-2.27,10.82-8.81,10.22-14.52a60.21,60.21,0,0,0-4.31-16.72,77.52,77.52,0,0,0-7-13.45c-2.06-3.07-5.08-5.56-7.92-8-2.43-2.12-5.53-2.58-8.71-2.3"/><path class="cls-1" d="M721.5,98.25c-2.92.33-5.84.65-8.75,1-4.75.57-9.51,1.12-14.25,1.77-2.18.3-4.35.74-6.5,1.24-11.24,2.62-18.87,9.36-21.89,20.52A23.13,23.13,0,0,0,673.06,141a54,54,0,0,0,18.49,18.45c6.43,3.85,13.2,3.16,19.43-.93,8-5.27,12.07-13.3,14.18-22.25,1.62-6.89,2.51-14,3.56-21,.67-4.48,1-9,1.52-13.5.19-1.8-.38-3-2.49-3s-4-.3-6-.47"/><path class="cls-1" d="M319,90.75c-3.57,1.06-5.74,4-7.93,6.56-4.48,5.32-9.12,10.44-15.35,13.62-4.75,2.42-9.83,4.18-14.71,6.35a39,39,0,0,0-6,3.26c-2.48,1.67-3.21,3.74-2.22,6.69,1,3.16,2.44,6.19,3.7,9.27,2.74,6.67,5.66,13.27,8.21,20,3.1,8.21,9.08,12.68,17.55,13.66A177.84,177.84,0,0,0,324,171.64c9-.08,17.68-2.21,24.73-8.41a19.34,19.34,0,0,0,6.52-13.48c.65-8.05-2.17-15.42-4.82-22.72a73.46,73.46,0,0,0-20.19-30,44.25,44.25,0,0,0-6-4.93c-1.39-.86-3.28-.91-4.95-1.33"/><path class="cls-1" d="M430.5,75.75c-8.2,1.49-12.82,7.15-16.53,14a47.81,47.81,0,0,1-4,6c-3.3,4.37-8.26,5.69-13.23,7a93.7,93.7,0,0,0-12,3.56c-6.54,2.73-10.86,7.25-11.64,14.91-.71,7,.36,13.84.56,20.76.16,5.74.05,11.51-.24,17.25-.46,9.14-5.6,16.34-10.2,23.76-2.62,4.23-5.07,8.59-6.25,13.49s2,9.68,7.74,10.25c6.54.66,11.95-1.83,16.48-6.27a113.21,113.21,0,0,0,21.5-28.24c3.14-6,4.21-12.68,5.52-19.24,1.72-8.62,3.32-17.26,6.51-25.5,1.51-3.89,3.47-7.6,7.77-8.91a18.87,18.87,0,0,1,6.47-.29,47.69,47.69,0,0,1,6.25,1c6.91,1.35,14.61-2.94,16.16-9.53a23.33,23.33,0,0,0-.62-12,79.3,79.3,0,0,0-5.26-13c-3.07-6.15-7.77-9.43-14.78-9"/><path class="cls-1" d="M64.5,54.75c-2.82,2-3.58,6.92-1.5,9.5,1.3,1.6,2.8,1.73,4.24.24,1.65-1.71,1.81-3.78,1.26-6-.49-2-1.39-3.61-3.75-3.75"/><path class="cls-1" d="M484.5,217.25c-7.73,1.88-13.45,7.11-19.48,11.78a92.62,92.62,0,0,1-24.5,13.27c-3.65,1.36-7.22,3-10,5.94-4.05,4.18-3.93,8.45,1.32,10.88,8.51,3.95,15.54,9.8,22.73,15.59A28.91,28.91,0,0,0,466,280.49c4.5,1.07,9,.67,13.5,0l8.75-1.25c2.74-.39,4.89-1.55,5.49-4.5.87-4.24,1.86-8.47,2.47-12.76a66.64,66.64,0,0,1,8.51-24.51c1.67-2.85,3.5-5.65,3.59-9.23a6.19,6.19,0,0,0-3.32-5.74,32.46,32.46,0,0,0-18.74-5.26h-1.5"/><path class="cls-1" d="M161,216.75c-2.83,1.05-5.32,2.45-6.51,5.5-2.6,6.64,1,12.11,7.76,13,.66.08,1.34,0,2,0,6.74.62,8.81-5.43,7.76-10a12,12,0,0,0-2.76-6c-2.21-2.31-5-2.79-8-2.5"/><path class="cls-1" d="M169.5,273.75c-1.33.25-2.66.54-4,.74-6.69,1-10.7,5.18-13.54,11-1.92,3.95-4,7.89-7.47,10.76a35,35,0,0,1-5.26,4,40.33,40.33,0,0,0-16.51,16.28c-3.51,6.34-7.34,12.5-11,18.78a28.09,28.09,0,0,0-3,20,47.37,47.37,0,0,0,6.41,16c6.27,10.06,18.39,9.7,26.79,4.48,4.72-2.94,7-7.82,9.15-12.54,4.41-9.82,12.51-14.08,22.36-15.92,4.87-.91,9.85-1.21,14.73-2.09,4.59-.82,8.87-2.44,12.28-5.93,5.56-5.7,10.83-11.68,14.39-18.82,2.62-5.25,2.7-11.13,2.1-16.95-.31-3.08-.46-6.17-.77-9.25A36.08,36.08,0,0,0,212.53,281c-1.89-3.62-5.14-4.84-8.78-5.2-5.07-.49-10.16-.74-15.25-1-6.25-.37-12.5-.68-18.75-1"/><rect class="cls-5" x="162.84" y="-161.59" width="448.26" height="773.94" transform="translate(161.59 612.35) rotate(-90)"/></svg>