<?xml version="1.0" encoding="utf-8"?>
<!-- Generator: Adobe Illustrator 22.0.0, SVG Export Plug-In . SVG Version: 6.00 Build 0)  -->
<svg version="1.1" id="Layer_1" xmlns="http://www.w3.org/2000/svg" xmlns:xlink="http://www.w3.org/1999/xlink" x="0px" y="0px"
	 viewBox="0 0 24 24" style="enable-background:new 0 0 24 24;" xml:space="preserve">
<style type="text/css">
	.st0{fill:#6090FF;}
</style>
<path class="st0" d="M12,0.2L2.3,4.5v6.4c0,6,4.1,11.5,9.7,12.9c5.5-1.4,9.7-6.9,9.7-12.9V4.5L12,0.2 M12,4.5c1.8,0,3.2,1.4,3.2,3.2
	s-1.4,3.2-3.2,3.2S8.8,9.5,8.8,7.7S10.2,4.5,12,4.5 M17.5,17.4c-1.3,2-3.2,3.5-5.5,4.2c-2.3-0.7-4.2-2.2-5.5-4.2
	c-0.4-0.5-0.7-1.1-0.9-1.6c0-1.8,2.9-3.2,6.4-3.2s6.4,1.4,6.4,3.2C18.2,16.3,17.9,16.8,17.5,17.4z"/>
</svg>
