<?xml version="1.0" encoding="utf-8"?>
<!-- Generator: Adobe Illustrator 22.0.0, SVG Export Plug-In . SVG Version: 6.00 Build 0)  -->
<svg version="1.1" id="Layer_1" xmlns="http://www.w3.org/2000/svg" xmlns:xlink="http://www.w3.org/1999/xlink" x="0px" y="0px"
	 viewBox="0 0 460 230" style="enable-background:new 0 0 460 230;" xml:space="preserve">
<style type="text/css">
	.st0{fill:#AAAAAA;}
	.st1{fill:#6090FF;}
</style>
<path class="st0" d="M53.5,25.4L53.5,25.4c-9.9,0-18,8.1-18,18v0c0,9.9,8.1,18,18,18h0c9.9,0,18-8.1,18-18v0
	C71.5,33.4,63.4,25.4,53.5,25.4z"/>
<path class="st1" d="M284.7,0H74.5v44.4h192.2c9.9,0,18-8.1,18-18V0z"/>
<path class="st0" d="M408.7,180L408.7,180c9.9,0,18,8.1,18,18v0c0,9.9-8.1,18-18,18h0c-9.9,0-18-8.1-18-18v0
	C390.7,188.1,398.7,180,408.7,180z"/>
<path class="st1" d="M195.5,70.5h174.2c9.9,0,18,8.1,18,18V199H195.5c-9.9,0-18-8.1-18-18V88.5C177.5,78.6,185.5,70.5,195.5,70.5z"
	/>
</svg>
